<svg transform="scale(1)" version="1.1" id="Layer_1"
	xmlns="http://www.w3.org/2000/svg"
	xmlns:xlink="http://www.w3.org/1999/xlink" x="0px" y="0px" viewBox="0 0 500 500" xml:space="preserve" class="show_show__wrapper__graphic__5Waiy ">
	<title>React</title>
	<style type="text/css">
	.st0{fill:#68E1FD;}
	.st1{fill:#093F68;}
	.st2{fill:#FFFFFF;}
	.st3{fill:#70CC40;}
	.st4{fill:#DFEAEF;}
	.st5{fill:#FFBC0E;}
	.st6{fill:#F56132;}
	</style>
	<g id="data">
		<path class="st0" d="M356.7,298.3v55.8c0,15.8-52.1,28.5-116.4,28.5s-116.4-12.8-116.4-28.5v-55.8H356.7z"></path>
		<path class="st1" d="M240.3,384.5c-58.1,0-118.2-11.4-118.2-30.4v-55.8c0-1,0.8-1.8,1.8-1.8h232.8c1,0,1.8,0.8,1.8,1.8v55.8
		C358.5,373.1,298.4,384.5,240.3,384.5z M125.7,300.1v54c0,12.9,46,26.7,114.6,26.7s114.6-13.8,114.6-26.7v-54L125.7,300.1z"></path>
		<ellipse class="st1" cx="240.3" cy="298.3" rx="116.4" ry="28.5"></ellipse>
		<path class="st1" d="M240.2,328.7c-58.1,0-118.2-11.4-118.2-30.4s60.1-30.4,118.2-30.4s118.2,11.4,118.2,30.4
		S298.4,328.7,240.2,328.7z M240.2,271.6c-68.5,0-114.6,13.8-114.6,26.7s46,26.7,114.6,26.7s114.6-13.8,114.6-26.7
		S308.8,271.6,240.2,271.6z"></path>
		<path class="st1" d="M339.3,353.1c-1,0-1.8-0.8-1.8-1.8c0,0,0,0,0,0v-21.8c0-1,0.8-1.8,1.8-1.8c1,0,1.8,0.8,1.8,1.8v21.8
		C341.1,352.3,340.3,353.1,339.3,353.1z"></path>
		<path class="st0" d="M356.7,222.1v55.8c0,15.8-52.1,28.5-116.4,28.5s-116.4-12.8-116.4-28.5v-55.8H356.7z"></path>
		<path class="st1" d="M240.3,308.3c-58.1,0-118.2-11.4-118.2-30.4v-55.8c0-1,0.8-1.8,1.8-1.8h232.8c1,0,1.8,0.8,1.8,1.8v55.8
		C358.5,296.9,298.4,308.3,240.3,308.3z M125.7,223.9v54c0,12.9,46,26.7,114.6,26.7s114.6-13.8,114.6-26.7v-54L125.7,223.9z"></path>
		<ellipse class="st1" cx="240.3" cy="222.1" rx="116.4" ry="28.5"></ellipse>
		<path class="st1" d="M240.2,252.5c-58.1,0-118.2-11.4-118.2-30.4s60.1-30.4,118.2-30.4s118.3,11.4,118.3,30.4
		S298.4,252.5,240.2,252.5z M240.2,195.4c-68.5,0-114.6,13.8-114.6,26.7s46,26.7,114.6,26.7s114.6-13.8,114.6-26.7
		S308.8,195.4,240.2,195.4L240.2,195.4z"></path>
		<path class="st1" d="M339.3,276.9c-1,0-1.8-0.8-1.8-1.8v-21.8c0-1,0.8-1.8,1.8-1.8c1,0,1.8,0.8,1.8,1.8v21.8
		C341.1,276.1,340.3,276.9,339.3,276.9L339.3,276.9z"></path>
		<path class="st1" d="M325.3,282.5c-1,0-1.8-0.8-1.8-1.8v-21.8c-0.1-1,0.7-1.9,1.7-2c1-0.1,1.9,0.7,2,1.7c0,0.1,0,0.2,0,0.3v21.8
		C327.2,281.7,326.4,282.5,325.3,282.5C325.3,282.5,325.3,282.5,325.3,282.5z"></path>
		<path class="st1" d="M325.3,358.7c-1,0-1.8-0.8-1.8-1.8c0,0,0,0,0,0V335c-0.1-1,0.7-1.9,1.7-2c1-0.1,1.9,0.7,2,1.7
		c0,0.1,0,0.2,0,0.3v21.8C327.2,357.9,326.4,358.7,325.3,358.7C325.3,358.7,325.3,358.7,325.3,358.7z"></path>
		<path class="st1" d="M311.2,360.9c-1,0-1.8-0.8-1.8-1.8v-21.8c0.1-1,1-1.8,2-1.7c0.9,0.1,1.6,0.8,1.7,1.7v21.8
		C313.1,360.1,312.2,360.9,311.2,360.9L311.2,360.9z"></path>
		<path class="st0" d="M356.7,145.9v55.8c0,15.8-52.1,28.5-116.4,28.5s-116.4-12.8-116.4-28.5v-55.8H356.7z"></path>
		<path class="st1" d="M240.3,232.1c-58.1,0-118.3-11.4-118.3-30.4v-55.8c0-1,0.8-1.8,1.8-1.8c0,0,0,0,0,0h232.8c1,0,1.8,0.8,1.8,1.8
		c0,0,0,0,0,0v55.8C358.5,220.7,298.4,232.1,240.3,232.1z M125.7,147.7v54c0,12.9,46,26.7,114.6,26.7s114.6-13.8,114.6-26.7v-54
		H125.7z"></path>
		<ellipse class="st0" cx="240.3" cy="145.9" rx="116.4" ry="28.5"></ellipse>
		<path class="st1" d="M240.2,176.2c-58.1,0-118.2-11.4-118.2-30.4s60.1-30.4,118.2-30.4s118.2,11.4,118.2,30.4
		S298.4,176.2,240.2,176.2z M240.2,119.2c-68.5,0-114.6,13.8-114.6,26.7s46,26.7,114.6,26.7s114.6-13.8,114.6-26.7
		S308.8,119.2,240.2,119.2z"></path>
		<path class="st1" d="M339.3,200.7c-1,0-1.8-0.8-1.8-1.8V177c0-1,0.8-1.8,1.8-1.8c1,0,1.8,0.8,1.8,1.8v21.8
		C341.1,199.9,340.3,200.7,339.3,200.7C339.3,200.7,339.3,200.7,339.3,200.7z"></path>
	</g>
	<g id="file">
		<polygon class="st2" points="204.6,351.3 107.5,351.3 107.5,236.9 177.8,236.9 204.6,263 	"></polygon>
		<path class="st1" d="M204.6,353.1h-97.1c-1,0-1.8-0.8-1.8-1.8c0,0,0,0,0,0V236.9c0-1,0.8-1.8,1.8-1.8h70.3c0.5,0,0.9,0.2,1.3,0.5
		l26.8,26.1c0.4,0.3,0.5,0.8,0.6,1.3v88.4C206.5,352.3,205.6,353.1,204.6,353.1L204.6,353.1z M109.3,349.5h93.4v-85.7l-25.7-25
		h-67.7V349.5z"></path>
		<polygon class="st3" points="177.8,236.9 177.8,263 204.6,263 	"></polygon>
		<path class="st1" d="M204.6,264.8h-26.8c-1,0-1.8-0.8-1.8-1.8v-26c0-1,0.8-1.8,1.8-1.8c0.5,0,0.9,0.2,1.3,0.5l26.8,26.1
		c0.7,0.7,0.7,1.9,0,2.6C205.6,264.7,205.1,264.9,204.6,264.8L204.6,264.8z M179.6,261.1h20.4l-20.4-19.9V261.1z"></path>
		<path class="st4" d="M156.1,261.4h-33.5c-1-0.1-1.8-1-1.7-2c0.1-0.9,0.8-1.6,1.7-1.7h33.5c1-0.1,1.9,0.7,2,1.7c0.1,1-0.7,1.9-1.7,2
		C156.2,261.4,156.2,261.4,156.1,261.4z"></path>
		<path class="st4" d="M187,284.9h-64.5c-1-0.1-1.8-1-1.7-2c0.1-0.9,0.8-1.6,1.7-1.7H187c1-0.1,1.9,0.7,2,1.7c0.1,1-0.7,1.9-1.7,2
		C187.2,284.9,187.1,284.9,187,284.9z"></path>
		<path class="st4" d="M187,308h-18.4c-1,0-1.8-0.8-1.8-1.8c0-1,0.8-1.8,1.8-1.8H187c1,0,1.8,0.8,1.8,1.8
		C188.8,307.2,188,308,187,308z"></path>
		<path class="st4" d="M152.4,308h-29.9c-1,0-1.8-0.8-1.8-1.8c0-1,0.8-1.8,1.8-1.8h29.9c1,0,1.8,0.8,1.8,1.8
		C154.2,307.2,153.4,308,152.4,308z"></path>
		<path class="st4" d="M166,331.1h-43.5c-1-0.1-1.8-1-1.7-2c0.1-0.9,0.8-1.6,1.7-1.7H166c1-0.1,1.9,0.7,2,1.7c0.1,1-0.7,1.9-1.7,2
		C166.2,331.1,166.1,331.1,166,331.1z"></path>
	</g>
	<g id="cloud">
		<path class="st2" d="M392.5,196c0,4-1.5,7.9-4.3,10.9c-2.7,2.9-6.4,4.5-10.3,4.5H264.8c-8,0-14.6-6.9-14.6-15.4
		c0-4,1.5-7.9,4.3-10.9c0.8-0.8,1.7-1.6,2.7-2.2c-0.4-2-0.6-4-0.6-6.1c0-15.2,11.6-27.5,26-27.5c4.6,0,9.1,1.3,13.1,3.7
		c0.3-18.5,14.6-33.4,32.1-33.4s31.6,14.6,32.1,32.9c0.5,0,1-0.1,1.5-0.1c12.7,0,22.9,10.9,22.9,24.3c0,1.7-0.2,3.4-0.5,5.1
		C389.2,184.4,392.6,190,392.5,196z"></path>
		<path class="st1" d="M377.9,213.2H264.8c-9,0-16.4-7.7-16.4-17.2c0-4.5,1.7-8.9,4.8-12.1c0.6-0.6,1.3-1.2,2-1.8
		c-0.3-1.7-0.4-3.5-0.4-5.3c0-16.2,12.5-29.3,27.8-29.3c3.9,0,7.8,0.9,11.4,2.6c1.8-18,16.4-32.2,33.8-32.2
		c17.9,0,32.4,14.3,33.9,32.8c13.5,0.1,24.5,11.8,24.5,26.1c0,1.4-0.1,2.7-0.3,4.1c5.4,3.2,8.6,9,8.5,15.2c0,4.5-1.7,8.9-4.8,12.1
		C386.6,211.4,382.3,213.2,377.9,213.2z M282.5,151.1c-13.3,0-24.1,11.5-24.1,25.7c0,1.9,0.2,3.8,0.6,5.7c0.1,0.7-0.2,1.5-0.8,1.9
		c-0.9,0.6-1.6,1.2-2.3,2c-2.4,2.6-3.8,6-3.8,9.6c0,7.5,5.7,13.6,12.7,13.6h113.2c3.4,0,6.7-1.4,9-3.9c2.4-2.6,3.8-6,3.8-9.6
		c0.1-5.3-2.9-10.2-7.7-12.5c-0.7-0.4-1.2-1.2-1-2c0.3-1.6,0.5-3.1,0.5-4.7c0-12.4-9.5-22.4-21.1-22.4c-0.5,0-0.9,0-1.4,0
		c-1,0.1-1.9-0.7-2-1.7c0,0,0-0.1,0-0.1c-0.5-17.4-13.8-31.1-30.3-31.1s-30,14.2-30.3,31.6c0,1-0.9,1.8-1.9,1.8
		c-0.3,0-0.7-0.1-0.9-0.3C291,152.3,286.8,151.1,282.5,151.1L282.5,151.1z"></path>
		<polygon class="st5" points="310.7,206 310.7,179.3 295.3,179.3 295.3,206 287.1,206 303,222.1 318.9,206 	"></polygon>
		<path class="st1" d="M303,223.9c-0.5,0-1-0.2-1.3-0.5l-15.9-16.1c-0.7-0.7-0.7-1.9,0-2.6c0.3-0.3,0.8-0.5,1.3-0.5h6.3v-24.9
		c0-1,0.8-1.8,1.8-1.8c0,0,0,0,0,0h15.4c1,0,1.8,0.8,1.8,1.8v24.9h6.3c1,0,1.8,0.8,1.8,1.8c0,0.5-0.2,0.9-0.5,1.3l-15.9,16.1
		C304,223.7,303.5,223.9,303,223.9z M291.5,207.8l11.5,11.6l11.5-11.6h-3.8c-1,0-1.8-0.8-1.8-1.8v-24.9h-11.8V206
		c0,1-0.8,1.8-1.8,1.8c0,0,0,0,0,0L291.5,207.8z"></path>
		<polygon class="st6" points="347.4,195.4 347.4,222.1 332,222.1 332,195.4 323.8,195.4 339.7,179.3 355.6,195.4 	"></polygon>
		<path class="st1" d="M347.4,223.9H332c-1,0-1.8-0.8-1.8-1.8c0,0,0,0,0,0v-24.9h-6.3c-1,0-1.8-0.8-1.8-1.8c0-0.5,0.2-0.9,0.5-1.3
		l15.9-16.1c0.3-0.3,0.8-0.5,1.3-0.5l0,0c0.5,0,1,0.2,1.3,0.5l15.9,16.1c0.7,0.7,0.7,1.9,0,2.6c-0.3,0.3-0.8,0.5-1.3,0.5h-6.3v24.9
		C349.2,223.1,348.4,223.9,347.4,223.9z M333.8,220.2h11.8v-24.9c0-1,0.8-1.8,1.8-1.8h3.8l-11.5-11.6l-11.5,11.6h3.8
		c1,0,1.8,0.8,1.8,1.8c0,0,0,0,0,0L333.8,220.2z"></path>
	</g>
</svg>