<svg transform="scale(0.8)" version="1.1" id="Layer_1"
	xmlns="http://www.w3.org/2000/svg"
	xmlns:xlink="http://www.w3.org/1999/xlink" x="0px" y="0px" viewBox="0 0 500 500" xml:space="preserve" class="show_show__wrapper__graphic__5Waiy ">
	<title>React</title>
	<style type="text/css">
	.st0{fill:#FFFFFF;}
	.st1{fill:#093F68;}
	.st2{fill:#DFEAEF;}
	.st3{fill:#68E1FD;}
	.st4{fill:#70CC40;}
	.st5{fill:#FFC9B0;}
	.st6{fill:#725858;}
	.st7{fill:#F56132;}
	.st8{fill:none;}
	</style>
	<g id="file-3">
		<polygon class="st0" points="388.6,221.8 257.8,221.8 257.8,59.4 364,59.4 388.6,80.2 	"></polygon>
		<path class="st1" d="M388.6,223.6H257.8c-1,0-1.9-0.9-1.9-1.9V59.4c0-1,0.9-1.9,1.9-1.9h106.3c0.4,0,0.8,0.2,1.2,0.4l24.5,20.8
		c0.4,0.4,0.7,0.9,0.7,1.4v141.6C390.5,222.7,389.6,223.6,388.6,223.6L388.6,223.6z M259.6,219.9h127.1V81l-23.3-19.8H259.6V219.9z"></path>
		<polygon class="st0" points="364,59.4 364,80 388.6,80 	"></polygon>
		<path class="st1" d="M388.6,81.9h-24.5c-1,0-1.9-0.9-1.9-1.9V59.3c0-1,0.8-1.9,1.8-1.9c0.4,0,0.8,0.2,1.2,0.4l24.5,20.7
		c0.8,0.6,0.9,1.7,0.3,2.5c0,0,0,0.1-0.1,0.1C389.7,81.6,389.2,81.9,388.6,81.9L388.6,81.9z M365.9,78.2h17.6l-17.6-14.8V78.2z"></path>
		<path class="st2" d="M351.9,81.9H279c-1,0.1-2-0.6-2.1-1.6c-0.1-1,0.6-2,1.6-2.1c0.1,0,0.2,0,0.2,0h73.2c1,0,1.9,0.8,1.9,1.8
		c0,0.9-0.7,1.7-1.6,1.9H351.9z"></path>
		<path class="st2" d="M369.4,98.8H279c-1,0-1.9-0.9-1.9-1.9c0-1,0.8-1.9,1.8-1.9c0,0,0.1,0,0.1,0h90.4c1,0,1.9,0.9,1.9,1.9
		S370.4,98.8,369.4,98.8z"></path>
		<path class="st2" d="M369.4,118.9H279c-1,0-1.9-0.9-1.9-1.9c0-1,0.8-1.9,1.8-1.9c0,0,0.1,0,0.1,0h90.4c1,0,1.9,0.9,1.9,1.9
		S370.4,118.9,369.4,118.9z"></path>
		<path class="st2" d="M369.4,139H279c-1,0.1-2-0.6-2.1-1.6c-0.1-1,0.6-2,1.6-2.1c0.1,0,0.2,0,0.2,0h90.7c1-0.1,2,0.6,2.1,1.6
		c0.1,1-0.6,2-1.6,2.1c-0.1,0-0.2,0-0.2,0H369.4z"></path>
		<path class="st2" d="M369.4,159.1H279c-1,0-1.9-0.9-1.9-1.9c0-1,0.8-1.9,1.8-1.9c0,0,0.1,0,0.1,0h90.4c1,0,1.9,0.9,1.9,1.9
		C371.3,158.2,370.4,159.1,369.4,159.1L369.4,159.1z"></path>
	</g>
	<g id="file-2">
		<polygon class="st0" points="323.2,251.9 192.4,251.9 192.4,89.5 298.6,89.5 323.2,110.3 	"></polygon>
		<path class="st1" d="M323.2,253.7H192.4c-1,0-1.9-0.9-1.9-1.9V89.5c0-1,0.9-1.9,1.9-1.9h106.3c0.4,0,0.8,0.2,1.2,0.4l24.5,20.8
		c0.4,0.4,0.7,0.9,0.7,1.4v141.6C325,252.8,324.2,253.6,323.2,253.7L323.2,253.7z M194.2,250h127.1V111.2l-23.4-19.8H194.2
		L194.2,250z"></path>
		<polygon class="st0" points="298.6,89.5 298.6,110.2 323.2,110.2 	"></polygon>
		<path class="st1" d="M323.2,112h-24.5c-1,0-1.8-0.8-1.8-1.8c0,0,0,0,0,0V89.5c0-1,0.9-1.9,1.9-1.9c0.4,0,0.8,0.2,1.2,0.4l24.5,20.7
		c0.6,0.5,0.8,1.4,0.5,2.1C324.7,111.5,324,112,323.2,112z M300.5,108.3h17.6l-17.6-14.8V108.3z"></path>
		<path class="st2" d="M286.4,112h-72.9c-1,0-1.9-0.9-1.9-1.9c0-1,0.8-1.9,1.8-1.9c0,0,0.1,0,0.1,0h72.9c1,0,1.9,0.9,1.9,1.9
		c0,1-0.8,1.9-1.8,1.9C286.5,112,286.4,112,286.4,112z"></path>
		<path class="st2" d="M303.9,128.9h-90.4c-1,0.1-2-0.6-2.1-1.6s0.6-2,1.6-2.1c0.1,0,0.2,0,0.2,0h90.7c1,0,1.9,0.8,1.9,1.8
		c0,0.9-0.7,1.7-1.6,1.9H303.9z"></path>
		<path class="st2" d="M303.9,149h-90.4c-1,0.1-2-0.6-2.1-1.6c-0.1-1,0.6-2,1.6-2.1c0.1,0,0.2,0,0.2,0h90.7c1,0,1.9,0.8,1.9,1.8
		c0,0.9-0.7,1.7-1.6,1.9H303.9z"></path>
		<path class="st2" d="M303.9,169.1h-90.4c-1,0-1.9-0.9-1.9-1.9c0-1,0.8-1.9,1.8-1.9c0,0,0.1,0,0.1,0h90.4c1,0,1.9,0.9,1.9,1.9
		c0,1-0.8,1.9-1.8,1.9C304,169.1,303.9,169.1,303.9,169.1z"></path>
		<path class="st2" d="M303.9,189.2h-90.4c-1,0-1.9-0.9-1.9-1.9c0-1,0.8-1.9,1.8-1.9c0,0,0.1,0,0.1,0h90.4c1,0,1.9,0.9,1.9,1.9
		c0,1-0.8,1.9-1.8,1.9C304,189.2,303.9,189.2,303.9,189.2z"></path>
	</g>
	<g id="file-1">
		<polygon class="st0" points="232.9,279.4 102.1,279.4 102.1,117 208.4,117 232.9,137.8 	"></polygon>
		<path class="st1" d="M232.9,281.3H102.1c-1,0-1.9-0.8-1.9-1.8l0,0V117c0-1,0.8-1.9,1.8-1.9h106.3c0.4,0,0.8,0.2,1.2,0.4l24.5,20.8
		c0.4,0.4,0.7,0.9,0.7,1.4v141.6c0.1,1-0.6,1.9-1.6,2C233.1,281.3,233,281.3,232.9,281.3z M103.9,277.6H231V138.7l-23.4-19.8H104
		L103.9,277.6z"></path>
		<polygon class="st0" points="208.4,117 208.4,137.7 232.9,137.7 	"></polygon>
		<path class="st1" d="M232.9,139.6h-24.5c-1,0-1.9-0.9-1.9-1.9l0,0V117c0-1,0.9-1.9,1.9-1.9c0.4,0,0.8,0.2,1.2,0.4l24.5,20.7
		c0.8,0.6,0.9,1.7,0.3,2.5c0,0,0,0.1-0.1,0.1C234,139.3,233.5,139.6,232.9,139.6z M210.3,135.8h17.5L210.2,121L210.3,135.8z"></path>
		<path class="st2" d="M196.2,139.6h-72.9c-1,0-1.9-0.9-1.9-1.9c0-1,0.8-1.9,1.8-1.9c0,0,0.1,0,0.1,0h72.9c1,0,1.9,0.9,1.9,1.9
		c0,1-0.8,1.9-1.8,1.9C196.3,139.6,196.2,139.6,196.2,139.6z"></path>
		<path class="st2" d="M213.7,156.5h-90.4c-1-0.1-1.8-1-1.7-2c0.1-0.9,0.8-1.6,1.7-1.7h90.4c1,0,1.9,0.8,1.9,1.8
		c0,0.9-0.7,1.7-1.6,1.9H213.7z"></path>
		<path class="st2" d="M213.7,176.6h-90.4c-1,0-1.9-0.9-1.9-1.9c0-1,0.8-1.9,1.8-1.9c0,0,0.1,0,0.1,0h90.4c1,0,1.9,0.9,1.9,1.9
		C215.6,175.7,214.7,176.6,213.7,176.6L213.7,176.6z"></path>
		<path class="st2" d="M213.7,196.6h-90.4c-1,0-1.9-0.9-1.9-1.9c0-1,0.8-1.9,1.8-1.9c0,0,0.1,0,0.1,0h90.4c1,0,1.9,0.9,1.9,1.9
		C215.6,195.7,214.7,196.6,213.7,196.6L213.7,196.6z"></path>
		<path class="st2" d="M213.7,216.7h-90.4c-1,0-1.9-0.9-1.9-1.9c0-1,0.9-1.9,1.9-1.9h90.4c1,0,1.9,0.9,1.9,1.9
		C215.6,215.8,214.7,216.7,213.7,216.7L213.7,216.7z"></path>
	</g>
	<g id="cloud">
		<path class="st3" d="M406.4,254.5c1.4-4.6,2.1-9.3,2.1-14.1c0-31.1-29.8-56.3-66.5-56.3c-11.6,0-23,2.6-33.4,7.6
		c-10.9-18.5-33.4-31.2-59.5-31.2c-34.2,0-62.4,21.9-66.1,50c-8.2-2.9-16.9-4.3-25.6-4.3c-33.7,0-61.5,21.2-65.9,48.7
		c-21.8,5-37.8,21.9-37.8,41.9l0,0c0,24,22.9,43.4,51.2,43.4h289.5c28.3,0,51.2-19.4,51.2-43.4l0,0
		C445.7,276.2,429,259.1,406.4,254.5z"></path>
		<path class="st1" d="M394.5,342H105.1C75.8,342,52,321.7,52,296.7c0-20.1,15.6-37.8,38-43.4c5.2-28.1,34-49.1,67.5-49.1
		c8.2,0,16.3,1.2,24.1,3.7c5-28.3,33.6-49.4,67.6-49.4c25.4,0,48.3,11.7,60.2,30.7c10.3-4.7,21.4-7.1,32.7-7
		c37.7,0,68.4,26.1,68.4,58.2c0,4.3-0.5,8.6-1.6,12.7c23,5.4,38.8,23.1,38.8,43.6C447.6,321.7,423.8,342,394.5,342z M157.5,208
		c-32.2,0-59.8,20.3-64,47.2c-0.1,0.7-0.7,1.3-1.4,1.5c-21.4,4.9-36.4,21.4-36.4,40.1c0,22.9,22.1,41.5,49.4,41.5h289.4
		c27.2,0,49.4-18.6,49.4-41.5c0-19.3-15.5-35.9-37.8-40.4c-0.5-0.1-1-0.4-1.2-0.9c-0.3-0.5-0.3-1-0.2-1.5c1.3-4.4,2-9,2-13.6
		c0-30-29-54.5-64.6-54.5c-11.3,0-22.4,2.5-32.5,7.4c-0.9,0.4-1.9,0.1-2.4-0.7c-11-18.7-33.2-30.3-57.9-30.3
		c-33,0-60.6,20.8-64.2,48.4c-0.2,1-1.1,1.7-2.1,1.6c-0.1,0-0.3,0-0.4-0.1C174.5,209.4,166,207.9,157.5,208L157.5,208z"></path>
	</g>
	<g id="character">
		<path class="st4" d="M351.4,391.2c-26.3,16.8-30.3,12.1-30.7,12.3l8.8,35.4c0.4,1.7,22.7-10,24.3-11c6.5-4.2,12-9.8,16.2-16.3
		c5.8-9.5,5.7-21.8,2-32.3s-10.9-19.5-18.4-27.7c-17.6-19.1-40.6-41.1-68.8-39.4c-22.1,1.3-46.6-3.9-64.1,13.2
		c-8,7.9-13.2,18.4-18.7,28c-6.8,11.8-13.8,23.4-19.3,35.9c-2.3,5.3-4.4,10.8-4.9,16.5s0.9,11.9,4.8,16.1c6.5,7.2,18.1,7.2,27.1,3.6
		c1.7-0.9,3.6-1.4,5.5-1.6c7.6-0.3,4.9,11.8,4.9,16.7h100.5v-69.9C347.9,379,339.2,383.6,351.4,391.2z"></path>
		<path class="st1" d="M320.4,442.1H220c-0.8,0-1.5-0.7-1.5-1.5c0-1,0.1-2.2,0.2-3.5c0.3-3.6,0.7-9-1.1-10.9
		c-0.6-0.6-1.5-0.9-2.4-0.8c-1.5,0.2-3,0.6-4.3,1.2l-0.7,0.3c-9.2,3.6-21.7,3.8-28.8-4c-3.8-4.2-5.7-10.5-5.1-17.3
		c0.5-6,2.7-11.7,5-17c4.9-11.2,11.1-21.8,17.1-32.1l2.3-4c1-1.7,1.9-3.3,2.9-5.1c4.6-8.1,9.3-16.6,16.1-23.2
		c13.9-13.7,32.2-13.6,49.9-13.5c5,0,10.2,0.1,15.2-0.2c27.7-1.6,50,18.2,70,39.9c6.5,7.1,14.6,16.7,18.7,28.2
		c4.3,11.9,3.5,24.5-2.1,33.6c-4.3,6.7-10,12.5-16.7,16.8c-0.9,0.5-6.6,3.5-12.1,6.2c-11.7,5.7-12.6,5.3-13.4,5
		c-0.5-0.2-0.9-0.7-1-1.2l-6-24.4v25.7C322,441.4,321.3,442.1,320.4,442.1C320.5,442.1,320.5,442.1,320.4,442.1z M221.5,439.1h97.4
		v-68.4c0-0.5,0.2-0.9,0.6-1.2c0.4-0.3,0.9-0.4,1.3-0.2c18.1,5.5,21,9.5,24,13.7c1.9,2.8,4.4,5.2,7.3,6.9c0.4,0.3,0.7,0.8,0.7,1.3
		c0,0.5-0.3,1-0.7,1.3c-14,8.9-23.9,13.3-29.5,13l7.9,31.9c4.4-1.3,20.5-9.6,22.3-10.7c6.3-4.1,11.6-9.5,15.7-15.9
		c5.1-8.3,5.8-19.9,1.8-31s-11.7-20.3-18.1-27.2c-19.5-21.1-41.2-40.5-67.6-38.9c-5,0.3-10.3,0.3-15.4,0.2
		c-17.1-0.1-34.7-0.2-47.8,12.6c-6.5,6.4-11.1,14.6-15.6,22.6c-1,1.7-1.9,3.4-2.9,5.1l-2.3,4c-5.9,10.2-12.1,20.8-16.9,31.8
		c-2.2,5-4.3,10.4-4.8,16c-0.5,5.9,1.1,11.4,4.4,15c6.1,6.8,17.2,6.5,25.5,3.2l0.7-0.3c1.7-0.8,3.5-1.3,5.3-1.4
		c1.7-0.1,3.4,0.5,4.6,1.7c2.8,2.9,2.3,8.6,2,13.2C221.6,438,221.6,438.6,221.5,439.1L221.5,439.1z M330.9,438.5L330.9,438.5
		C330.9,438.5,330.9,438.5,330.9,438.5z M321.9,402.3c2,0.5,8.4,0.3,26.7-11.1c-2.4-1.8-4.5-3.9-6.2-6.4c-2.6-3.7-5.1-7.1-20.5-12
		V402.3z"></path>
		<path class="st1" d="M209.6,427c-0.6,0-1.2-0.4-1.4-1c-0.3-0.8,0.1-1.6,0.8-1.9c0,0,0,0,0,0c6.2-2.5,16-5.6,25.5-8.7
		c11.8-3.8,23.9-7.7,29.5-10.3c-0.4-8.5-0.7-14.4-3.4-22.7c-0.5-1.6-1.2-3.4-2.5-3.9c-1-0.3-2-0.3-3,0c-17.8,3-35.3,7.2-52.5,12.5
		c-0.8,0.2-1.6-0.2-1.9-1s0.2-1.6,1-1.9l0,0c17.3-5.3,35-9.5,52.8-12.5c1.5-0.4,3.1-0.3,4.7,0.1c2.4,1,3.5,3.5,4.3,5.8
		c2.9,9,3.2,15.1,3.6,24.5c0,0.6-0.3,1.1-0.8,1.4c-5.3,2.8-18.3,6.9-30.8,11c-9.4,3-19.2,6.2-25.3,8.6
		C209.9,427,209.8,427,209.6,427z"></path>
		<path class="st5" d="M263.9,382.2c2.9-2.2,6.5-3.4,9.9-4.6c3.8-1.3,7.9-2.6,11.8-1.9c3.4,0.6,6.5,2.5,9.4,4.5
		c4.4,3,8.7,6.2,11.8,10.6c0.8,1,1.3,2.2,1.3,3.4c-0.1,1.2-1.2,2.5-2.4,2.2c-0.5-0.1-1-0.4-1.3-0.8c-2-1.6-4.2-3-6.5-4.2
		c-0.5-0.3-1-0.5-1.6-0.5c-0.8,0.2-1.5,0.9-1.6,1.8c-0.1,0.8-0.1,1.7,0,2.5c-0.1,3.2-2.5,6-5.4,7.3s-6.1,1.6-9.3,1.7
		c-3.3,0.2-6.6-0.1-9.9-0.8c-1.5-0.2-2.8-1-3.8-2.1c-0.8-1.3-1.2-2.8-1.1-4.4c-0.5-5.5-1.8-10.9-3.9-16"></path>
		<path class="st1" d="M277.8,405.8c-2.7,0-5.4-0.2-8.1-0.8c-1.8-0.3-3.5-1.3-4.7-2.7c-1-1.5-1.5-3.2-1.5-5v-0.2
		c-0.4-5.3-1.7-10.5-3.8-15.5c-0.3-0.8,0-1.8,0.9-2.1s1.8,0,2.1,0.9c0.1,0.2,0.1,0.3,0.2,0.5c3.1-2.4,7-3.7,10.4-4.8
		c3.6-1.2,8.1-2.7,12.6-2c3.7,0.6,7,2.7,10,4.7c4.2,2.9,8.9,6.3,12.2,11c1,1.3,1.6,2.8,1.6,4.5c-0.1,1.2-0.7,2.3-1.6,3
		c-0.8,0.6-1.8,0.9-2.7,0.7c-0.7-0.2-1.4-0.5-2-1c-2-1.5-4.1-2.9-6.3-4.1c-0.2-0.1-0.4-0.2-0.6-0.3c0,0-0.1,0.2-0.1,0.5
		c0,0.4,0,0.8,0,1.2c0,0.3,0,0.7,0,1c-0.1,3.5-2.5,7-6.3,8.8c-3.2,1.5-6.9,1.8-10,1.9C279.3,405.8,278.6,405.8,277.8,405.8z
		 M264.1,383.8c1.4,4.2,2.4,8.6,2.7,13v0.2c0,1.2,0.3,2.3,0.8,3.3c0.8,0.8,1.8,1.3,2.9,1.5c3.1,0.7,6.3,0.9,9.4,0.7
		c2.8-0.1,6-0.3,8.7-1.5c2.2-1,4.4-3.3,4.5-5.9c0-0.3,0-0.5,0-0.8c0-0.7,0-1.3,0.1-2c0.2-1.5,1.4-2.7,3-3c0.9-0.1,1.8,0.2,2.6,0.7
		c2.3,1.3,4.6,2.8,6.7,4.4c0.2,0.2,0.4,0.3,0.7,0.5c0.3-0.2,0.4-0.4,0.5-0.8c-0.1-0.9-0.4-1.7-1-2.4c-3-4.2-7.5-7.5-11.4-10.2
		c-2.8-1.9-5.6-3.7-8.7-4.2c-3.7-0.6-7.6,0.7-11.1,1.9s-6.8,2.2-9.5,4.3C264.7,383.7,264.4,383.8,264.1,383.8L264.1,383.8z"></path>
		<path class="st6" d="M290.4,155.4L290.4,155.4c36.1,5.2,61.2,38.7,56,74.9l0,0l-6.3,43.6l0,0L209.3,255l0,0l6.3-43.6
		C220.7,175.3,254.3,150.2,290.4,155.4z"></path>
		<path class="st1" d="M339.9,275.6L209,256.8c-1-0.1-1.6-1-1.5-2l6.3-43.6c5.2-37.1,39.5-63.1,76.6-57.9
		c37.1,5.2,63.1,39.5,57.9,76.6c0,0.2-0.1,0.4-0.1,0.6l-6.3,43.6C341.7,275.1,340.8,275.7,339.9,275.6z M211.3,253.4l127.3,18.3
		l6-41.8c5.1-35.2-19.3-67.7-54.5-72.8c-35.2-5.1-67.7,19.3-72.8,54.5L211.3,253.4z"></path>
		<path class="st5" d="M261,307.3l19,2.7l0,0l-2.1,14.5c-0.4,2.5-2.7,4.2-5.1,3.8l-10.1-1.5c-2.5-0.4-4.2-2.7-3.8-5.1L261,307.3
		L261,307.3z"></path>
		<path class="st1" d="M268.9,329.6l-2.9-0.4c-5.4-0.8-9.2-5.8-8.4-11.2l1.6-11c0.1-1,1-1.6,2-1.5l19,2.7c1,0.1,1.6,1,1.5,2
		l-1.6,10.9C279.4,326.6,274.4,330.4,268.9,329.6z M262.5,309.3l-1.3,9.2c-0.5,3.5,1.9,6.7,5.4,7.2l2.9,0.4c3.5,0.5,6.7-1.9,7.2-5.4
		l1.3-9.1L262.5,309.3z"></path>
		<ellipse class="st5" transform="matrix(0.14 -0.9901 0.9901 0.14 -56.7356 436.2368)" cx="222.8" cy="250.8" rx="16.1" ry="18.6"></ellipse>
		<path class="st1" d="M220.7,269.2c-11.2-1.6-19.1-10.9-17.7-20.6s11.6-16.4,22.8-14.8s19.1,10.9,17.7,20.6S231.9,270.8,220.7,269.2
		z M225.3,237.4c-9.2-1.3-17.6,3.9-18.7,11.7s5.4,15.2,14.6,16.5s17.6-3.9,18.7-11.7S234.5,238.7,225.3,237.4z"></path>
		<ellipse class="st5" transform="matrix(0.14 -0.9901 0.9901 0.14 20.2919 555.796)" cx="330.1" cy="266.2" rx="16.1" ry="18.6"></ellipse>
		<path class="st1" d="M328.4,284.7c-11.2-1.6-19.1-10.9-17.7-20.6s11.6-16.4,22.8-14.8s19.1,10.8,17.7,20.6S339.5,286.3,328.4,284.7
		z M332.9,252.9c-9.2-1.3-17.6,3.9-18.7,11.7s5.5,15.2,14.6,16.5s17.6-3.9,18.7-11.7S342.1,254.2,332.9,252.9L332.9,252.9z"></path>
		<path class="st5" d="M270.1,311.1L270.1,311.1c-30.7-4.4-52.1-33-47.7-63.7c0,0,0,0,0,0l3.7-25.8c1.9-13.4,25.9-35.4,39.3-33.5
		c0,0,0.4,13,19.8,27.1c13.6,9.9,34.3,13.4,55,3l-6.5,45.3C329.3,294.2,300.8,315.6,270.1,311.1z"></path>
		<path class="st1" d="M269.9,312.9c-31.7-4.6-53.7-34-49.2-65.7l3.7-25.8c2-14.2,26.7-37.1,41.4-35c0.9,0.1,1.5,0.9,1.5,1.7
		c0,0.1,0.7,12.4,19,25.7c11.6,8.4,31.7,13.6,53.2,2.8c0.9-0.4,2-0.1,2.4,0.8c0.2,0.3,0.2,0.7,0.2,1.1l-6.5,45.3
		C331,295.5,301.6,317.5,269.9,312.9z M263.9,189.9c-11.3,0.1-34,18.3-36,32.1l-3.7,25.8c-4.5,29.7,15.9,57.5,45.6,62
		c29.7,4.5,57.5-15.9,62-45.6c0-0.3,0.1-0.6,0.1-0.9l6-42c-21.8,9.6-41.9,4.1-53.8-4.6C268.1,205,264.7,194,263.9,189.9L263.9,189.9
		z"></path>
		<ellipse class="st1" transform="matrix(0.1602 -0.9871 0.9871 0.1602 -30.84 463.5519)" cx="257" cy="249.9" rx="5.2" ry="5.2"></ellipse>
		<circle class="st1" cx="305.3" cy="256.5" r="5.2"></circle>
		<path class="st0" d="M295.2,282.8c-1.4,11.2-11.7,19.2-22.9,17.8c-11.2-1.4-19.2-11.7-17.8-22.9c0-0.2,0.1-0.5,0.1-0.7L295.2,282.8
		z"></path>
		<path class="st1" d="M271.7,302c-12.2-1.8-20.7-13.1-18.9-25.3c0.1-1,1-1.6,2-1.5l40.7,5.8c1,0.1,1.6,1,1.5,2
		C295.3,295.2,284,303.7,271.7,302C271.7,302,271.7,302,271.7,302z M256.2,279c-0.5,10.3,7.5,19.1,17.8,19.6c9,0.4,17-5.6,19.1-14.3
		L256.2,279z"></path>
		<path class="st1" d="M277.5,272.7c-1.7-0.3-3.4-0.6-5-1.1c-0.9-0.3-1.5-1.3-1.1-2.3c0.3-0.9,1.3-1.5,2.3-1.1l0,0
		c2.4,0.8,4.9,1.2,7.4,1.2c0.4-1.6-0.7-7.2-2.6-12.6c-0.3-0.9,0.2-2,1.1-2.3c0.9-0.3,2,0.2,2.3,1.1c1.3,3.7,4.2,12.8,2.2,15.9
		c-0.5,0.8-1.3,1.3-2.2,1.4C280.3,273,278.9,272.9,277.5,272.7z"></path>
		<path class="st1" d="M241.2,229.4c-2-0.3-3.3-2.1-3-4.1c0.3-1.9,2.1-3.3,4-3l24.6,3.2l0,0c2,0.3,3.3,2.1,3,4.1
		c-0.3,1.9-2.1,3.3-4,3L241.2,229.4L241.2,229.4z"></path>
		<path class="st1" d="M323.2,240.8L323.2,240.8l-24.6-3.7c-2-0.3-3.3-2.2-2.9-4.2c0.3-1.9,2.1-3.2,4-2.9l0,0l24.6,3.7
		c2,0.3,3.3,2.2,2.9,4.2C326.8,239.8,325.1,241,323.2,240.8L323.2,240.8z"></path>
		<path class="st7" d="M251.3,426.5h134.3c1.7,0,3,1.4,3,3v8c0,1.7-1.4,3-3,3H251.3c-1.7,0-3-1.4-3-3v-8
		C248.3,427.9,249.6,426.5,251.3,426.5z"></path>
		<path class="st1" d="M383.2,442.4H253.8c-4,0-7.3-3.3-7.3-7.3V432c0-4,3.3-7.3,7.3-7.3h129.5c4,0,7.3,3.3,7.3,7.3v3.1
		C390.5,439.1,387.2,442.4,383.2,442.4z M253.8,428.3c-2,0-3.7,1.6-3.7,3.7v3.1c0,2,1.6,3.7,3.7,3.7h129.5c2,0,3.7-1.6,3.7-3.7V432
		c0-2-1.6-3.7-3.7-3.7L253.8,428.3z"></path>
		<path class="st0" d="M235,426.5h63.6c2.2,0,3.9,1.8,3.9,3.9v6.3c0,2.2-1.8,3.9-3.9,3.9H235c-2.2,0-3.9-1.8-3.9-3.9v-6.3
		C231.1,428.3,232.9,426.5,235,426.5z"></path>
		<path class="st1" d="M295.5,442.4h-57.4c-4.9,0-8.8-4-8.8-8.8c0-4.9,4-8.8,8.8-8.8h57.4c4.9,0,8.8,3.9,8.8,8.8
		C304.4,438.4,300.4,442.4,295.5,442.4C295.5,442.4,295.5,442.4,295.5,442.4z M238.2,428.3c-2.9,0-5.2,2.3-5.2,5.2
		c0,2.9,2.3,5.2,5.2,5.2l0,0h57.4c2.9,0,5.2-2.3,5.2-5.2c0-2.9-2.3-5.2-5.2-5.2H238.2z"></path>
		<polygon class="st7" points="408.9,361 321.3,361 301.1,426.5 388.7,426.5 	"></polygon>
		<path class="st1" d="M388.7,428.3h-87.6c-1,0-1.8-0.8-1.8-1.8c0-0.2,0-0.4,0.1-0.5l20.2-65.5c0.2-0.8,0.9-1.3,1.7-1.3h87.6
		c0.6,0,1.1,0.3,1.4,0.7c0.3,0.5,0.4,1.1,0.3,1.6l-20.2,65.5C390.2,427.8,389.5,428.3,388.7,428.3z M303.5,424.7h83.8l19.1-61.9
		h-83.8L303.5,424.7z"></path>
		<path class="st5" d="M394.1,426l-15.7-7c-1-0.4-1.4-1.6-1-2.5l1.2-2.8c0.4-1,1.6-1.4,2.5-1l15.7,7c1,0.4,1.4,1.6,1,2.5l-1.2,2.8
		C396.2,426,395.1,426.4,394.1,426z"></path>
		<path class="st1" d="M394.1,427.5c-0.7,0-1.5-0.2-2.1-0.5l-12.9-5.8c-1.3-0.6-2.3-1.6-2.8-2.9c-1-2.7,0.3-5.7,3-6.8
		c1.3-0.5,2.7-0.5,4,0.1l0,0l12.9,5.8c2.6,1.2,3.8,4.3,2.6,6.9C398,426.2,396.2,427.4,394.1,427.5L394.1,427.5z M381.2,414.8
		c-0.7,0-1.2,0.4-1.5,1c-0.4,0.8,0,1.8,0.8,2.2l12.9,5.8c0.8,0.4,1.8,0,2.2-0.8c0.2-0.4,0.2-0.9,0-1.3c-0.2-0.4-0.5-0.7-0.9-0.9
		l-12.9-5.8C381.7,414.9,381.5,414.8,381.2,414.8z"></path>
		<path class="st5" d="M397.5,418.5l-15.7-7c-1-0.4-1.4-1.6-1-2.5l1.2-2.8c0.4-1,1.6-1.4,2.5-1l15.7,7c1,0.4,1.4,1.6,1,2.5l-1.2,2.8
		C399.6,418.5,398.4,418.9,397.5,418.5z"></path>
		<path class="st1" d="M397.5,419.9c-0.7,0-1.5-0.2-2.1-0.5l-12.9-5.8c-2.7-1.1-4-4.1-2.9-6.8c1.1-2.7,4.1-4,6.8-2.9
		c0.1,0.1,0.3,0.1,0.4,0.2l0,0l12.9,5.8c2.6,1.2,3.8,4.3,2.6,6.9C401.4,418.7,399.6,419.9,397.5,419.9L397.5,419.9z M384.6,407.3
		c-0.9,0-1.6,0.7-1.6,1.7c0,0.6,0.4,1.2,1,1.5l12.9,5.8c0.8,0.4,1.8,0,2.2-0.8c0,0,0,0,0,0c0.2-0.4,0.2-0.9,0-1.2
		c-0.2-0.4-0.5-0.7-0.9-0.9l-12.9-5.8C385,407.4,384.8,407.3,384.6,407.3z"></path>
		<path class="st5" d="M400.8,410.9l-15.7-7c-1-0.4-1.4-1.6-1-2.5l1.2-2.8c0.4-1,1.6-1.4,2.5-1l15.7,7c1,0.4,1.4,1.6,1,2.5l-1.2,2.8
		C402.9,410.9,401.8,411.4,400.8,410.9z"></path>
		<path class="st1" d="M400.9,412.4c-0.7,0-1.5-0.2-2.1-0.5l-12.9-5.8c-2.7-1.1-4-4.1-2.9-6.8c1.1-2.7,4.1-4,6.8-2.9
		c0.1,0.1,0.3,0.1,0.4,0.2l0,0l12.9,5.8c2.6,1.2,3.8,4.3,2.6,6.9C404.8,411.2,402.9,412.4,400.9,412.4L400.9,412.4z M388,399.8
		c-0.9,0-1.6,0.7-1.6,1.6c0,0.7,0.4,1.2,1,1.5l12.9,5.8c0.8,0.4,1.8,0,2.2-0.8c0.4-0.8,0-1.8-0.8-2.2l0,0l-12.9-5.8
		C388.5,399.8,388.2,399.7,388,399.8z"></path>
		<path class="st5" d="M404.2,403.4l-15.7-7c-1-0.4-1.4-1.6-1-2.5l1.2-2.8c0.4-1,1.6-1.4,2.5-1l15.7,7c1,0.4,1.4,1.6,1,2.5l-1.2,2.8
		C406.3,403.4,405.2,403.8,404.2,403.4z"></path>
		<path class="st1" d="M404.2,404.9c-0.7,0-1.5-0.2-2.1-0.5l-12.9-5.8c-2.6-1.2-3.8-4.3-2.6-6.9s4.3-3.8,6.9-2.6l0,0l12.9,5.8
		c2.6,1.2,3.8,4.3,2.6,7C408.1,403.6,406.3,404.8,404.2,404.9L404.2,404.9z M391.3,392.2c-0.9,0-1.6,0.7-1.6,1.6
		c0,0.7,0.4,1.2,1,1.5l12.9,5.8c0.8,0.4,1.8,0,2.2-0.8c0.4-0.8,0-1.8-0.8-2.2l-12.9-5.8C391.8,392.3,391.6,392.2,391.3,392.2z"></path>
		<line class="st8" x1="227" y1="352.2" x2="223.7" y2="383.6"></line>
		<path class="st1" d="M223.7,385.1h-0.2c-0.8-0.1-1.4-0.8-1.3-1.6c0,0,0,0,0,0l3.3-31.4c0.1-0.8,0.8-1.4,1.7-1.3s1.4,0.8,1.3,1.7
		l-3.4,31.4C225.1,384.5,224.5,385.1,223.7,385.1z"></path>
	</g>
	<g id="line">
		<path class="st1" d="M181.6,452.4c-22.3,0-42.5-8.4-52.2-36c-15.6-44.1,7.5-75.1,7.6-75.5c0.1-1,1-1.7,1.9-1.6c1,0.1,1.7,1,1.6,1.9
		c0,0.4-23,30.6-7.8,74c18.1,51.3,76.4,31.5,111.3,19.6c3.1-1.1,6.1-2.1,8.8-3c1-0.3,1.9,0.3,2.2,1.3c0.2,0.9-0.2,1.8-1.1,2.2
		c-2.7,0.9-5.6,1.9-8.8,2.9C227.3,444.3,203.4,452.4,181.6,452.4z"></path>
	</g>
</svg>